<svg xmlns="http://www.w3.org/2000/svg" version="1.1" id="5axis_rot" viewBox="10 -15 140 140">
	<circle r="3" cx="60" cy="70" fill="white" />
	<line x1="60" y1="70" x2="60" y2="15" style="stroke:white;stroke-width:2;" />
	<line x1="60" y1="70" x2="60" y2="15" style="stroke:white;stroke-width:2;" transform="rotate(110, 60, 70)"/>
	<line x1="60" y1="70" x2="60" y2="15" style="stroke:white;stroke-width:2;" transform="rotate(50, 60, 70)"/>
	<polyline points="60,15 58,15 60,10 62,15 60,15" style="stroke:white;stroke-width:2;fill:white;" />
	<polyline points="60,15 58,15 60,10 62,15 60,15" style="stroke:white;stroke-width:2;fill:white;" transform="rotate(110, 60, 70)" />
	<polyline points="60,15 58,15 60,10 62,15 60,15" style="stroke:white;stroke-width:2;fill:white;" transform="rotate(50, 60, 70)" />
	<path d="M 40 35 A 10 5 -5 0 1 80 45" stroke="white" fill="none" stroke-width="2"/>
	<polyline points="60,15 58,15 60,10 62,15 60,15" style="stroke:white;stroke-width:2;fill:white;" transform="rotate(230, 77, 25)" />
	<path d="M 40 35 A 10 5 -5 0 1 80 45" stroke="white" fill="none" stroke-width="2" transform="rotate(110, 60, 70)"/>
	<polyline points="60,15 58,15 60,10 62,15 60,15" style="stroke:white;stroke-width:2;fill:white;" transform="translate(23.6,53), rotate(340, 137, 50)" />
	<text x="66" y="88" fill="white" font-size="10">A+</text>
	<text x="64" y="56" fill="white" font-size="10">B+</text>
	<text x="120" y="95" fill="white" font-size="10">X+</text>
	<text x="109" y="31" fill="white" font-size="10">Y+</text>
	<text x="55" y="5" fill="white" font-size="10">Z+</text>
</svg>